# xmcd CD database file
#
# Track frame offsets:
#	150
#	16894
#	32432
#	47971
#	64513
#	81751
#	97497
#	111744
#	126814
#	142020
#	157382
#	171991
#	188644
#	201639
#
# Disc length: 2884 seconds
#
# Revision: 0
# Processed by: cddbd v1.5.2PL0 Copyright (c) Steve Scherf et al.
# Submitted via: CDex 1.51
#
DISCID=d60b420e
DTITLE=Lou Bega - Lounatic
DYEAR=2005
DGENRE=Jazz
TTITLE0=Mambo vs. Mozart(feat. Klazz Brothers and Cuba Percussion)
TTITLE1=Puzzy Cat
TTITLE2=Chocolata
TTITLE3=We Makin' Love
TTITLE4=Get Better
TTITLE5=I Got Style
TTITLE6=You Wanna Be Americano
TTITLE7=My Mama
TTITLE8=Bachata(feat. Alibi)
TTITLE9=Dance Like An African
TTITLE10=Egytian Queen
TTITLE11=Someday
TTITLE12=Call Your Name
TTITLE13=Thank You
EXTD=YEAR: 2005
EXTT0=
EXTT1=
EXTT2=
EXTT3=
EXTT4=
EXTT5=
EXTT6=
EXTT7=
EXTT8=
EXTT9=
EXTT10=
EXTT11=
EXTT12=
EXTT13=
PLAYORDER=
